<svg width="18" height="14" viewBox="0 0 18 14" fill="none" xmlns="http://www.w3.org/2000/svg">
<path d="M5.35718 12V13H6.35718V14H8.35718V12H7.35718V11H6.35718V10H5.35718V9H4.35718V8H3.35718V6H4.35718V5H5.35718V4H6.35718V3H7.35718V2H8.35718V0H6.35718V1H5.35718V2H4.35718V3H3.35718V4H2.35718V5H1.35718V6H0.357178V8H1.35718V9H2.35718V10H3.35718V11H4.35718V12" fill="#DF1818"/>
<path d="M14.3572 12V13H15.3572V14H17.3572V12H16.3572V11H15.3572V10H14.3572V9H13.3572V8H12.3572V6H13.3572V5H14.3572V4H15.3572V3H16.3572V2H17.3572V0H15.3572V1H14.3572V2H13.3572V3H12.3572V4H11.3572V5H10.3572V6H9.35718V8H10.3572V9H11.3572V10H12.3572V11H13.3572V12" fill="#DF1818"/>
</svg>
