<svg width="20" height="18" viewBox="0 0 20 18" fill="none" xmlns="http://www.w3.org/2000/svg">
<g filter="url(#filter0_i_178_11469)">
<path d="M11 18H9V17H8V16H7V15H6V14H5V13H4V12H3V11H2V10H1V8H0V3H1V2H2V1H3V0H8V1H9V2H11V1H12V0H17V1H18V2H19V3H20V8H19V10H18V11H17V12H16V13H15V14H14V15H13V16H12V17H11V18Z" fill="#DF1818"/>
</g>
<path d="M11 18H9V17H8V16H7V15H6V14H5V13H4V12H3V11H2V10H1V8H0V3H1V2H2V1H3V0H8V1H9V2H11V1H12V0H17V1H18V2H19V3H20V8H19V10H18V11H17V12H16V13H15V14H14V15H13V16H12V17H11V18ZM4 9V10H5V11H6V12H7V13H8V14H9V15H11V14H12V13H13V12H14V11H15V10H16V9H17V7H18V4H17V3H16V2H13V3H12V4H11V5H9V4H8V3H7V2H4V3H3V4H2V7H3V9H4Z" fill="black"/>
<defs>
<filter id="filter0_i_178_11469" x="0" y="0" width="24" height="22" filterUnits="userSpaceOnUse" color-interpolation-filters="sRGB">
<feFlood flood-opacity="0" result="BackgroundImageFix"/>
<feBlend mode="normal" in="SourceGraphic" in2="BackgroundImageFix" result="shape"/>
<feColorMatrix in="SourceAlpha" type="matrix" values="0 0 0 0 0 0 0 0 0 0 0 0 0 0 0 0 0 0 127 0" result="hardAlpha"/>
<feOffset dx="4" dy="4"/>
<feGaussianBlur stdDeviation="2"/>
<feComposite in2="hardAlpha" operator="arithmetic" k2="-1" k3="1"/>
<feColorMatrix type="matrix" values="0 0 0 0 1 0 0 0 0 1 0 0 0 0 1 0 0 0 0.5 0"/>
<feBlend mode="normal" in2="shape" result="effect1_innerShadow_178_11469"/>
</filter>
</defs>
</svg>
