<svg width="36" height="36" viewBox="0 0 36 36" fill="none" xmlns="http://www.w3.org/2000/svg">
<rect x="1" y="1" width="34" height="34" rx="17" stroke="#DF1818" stroke-width="2"/>
<circle cx="18" cy="18" r="16" fill="white"/>
<path d="M18.2 18.8H19.8V20.4H18.2V18.8ZM20.6 10V10.8H21.4V13.2H20.6V14.8H21.4V16.4H22.2V18H23V19.6H23.8V20.4H24.6V22H25.4V25.2H24.6V26H11.8V25.2H11V22H11.8V20.4H12.6V19.6H13.4V18H14.2V16.4H15V14.8H15.8V13.2H15V10.8H15.8V10H20.6ZM19 11.6H17.4V15.6H16.6V17.2H15.8V18.8H15V19.6H14.2V21.2H13.4V22.8H14.2V22H15V21.2H15.8V20.4H16.6V21.2H17.4V22H18.2V22.8H19V23.6H20.6V22.8H21.4V21.2H22.2V20.4H21.4V18.8H20.6V17.2H19.8V15.6H19V11.6Z" fill="#DF1818"/>
</svg>
