<svg width="36" height="36" viewBox="0 0 36 36" fill="none" xmlns="http://www.w3.org/2000/svg">
<rect x="1" y="1" width="34" height="34" rx="17" stroke="#DF1818" stroke-width="2"/>
<circle cx="18" cy="18" r="16" fill="white"/>
<path d="M17 20H18V19H19V18H20V17H21V16H22V15H23V14H24V12H22V13H21V14H20V15H19V16H18V17H17V18H16V19H17V20ZM13 26H11V25H10V23H11V22H12V21H13V20H12V19H11V17H12V16H14V17H15V16H16V15H17V14H18V13H19V12H20V11H21V10H26V15H25V16H24V17H23V18H22V19H21V20H20V21H19V22H20V24H19V25H17V24H16V23H15V24H14V25H13V26Z" fill="#DF1818"/>
<path d="M26 18L26.8981 20.7639H29.8042L27.4531 22.4721L28.3511 25.2361L26 23.5279L23.6489 25.2361L24.5469 22.4721L22.1958 20.7639H25.1019L26 18Z" fill="#DF1818"/>
</svg>
