<svg width="36" height="36" viewBox="0 0 36 36" fill="none" xmlns="http://www.w3.org/2000/svg">
<rect x="1" y="1" width="34" height="34" rx="17" stroke="#DF1818" stroke-width="2"/>
<circle cx="18" cy="18" r="16" fill="white"/>
<path d="M12 12.4H13.6V11.6H15.2V10.8H16.8V10H20V10.8H21.6V11.6H23.2V12.4H24.8V20.4H24V22H23.2V23.6H22.4V24.4H21.6V25.2H20V26H16.8V25.2H15.2V24.4H14.4V23.6H13.6V22H12.8V20.4H12V12.4ZM17.6 11.6V12.4H16V13.2H14.4V14H13.6V19.6H14.4V21.2H15.2V22.8H16V23.6H17.6V24.4H19.2V23.6H20.8V22.8H21.6V21.2H22.4V19.6H23.2V14H22.4V13.2H20.8V12.4H19.2V11.6H17.6Z" fill="#DF1818"/>
<path d="M18.5 14L19.3981 16.7639H22.3042L19.9531 18.4721L20.8511 21.2361L18.5 19.5279L16.1489 21.2361L17.0469 18.4721L14.6958 16.7639H17.6019L18.5 14Z" fill="#DF1818"/>
</svg>
