<svg width="36" height="36" viewBox="0 0 36 36" fill="none" xmlns="http://www.w3.org/2000/svg">
<rect x="1" y="1" width="34" height="34" rx="17" stroke="#DF1818" stroke-width="2"/>
<circle cx="18" cy="18" r="16" fill="white"/>
<path d="M16.1111 10H14.3333V11.7778H12.5556V13.5556H14.3333V11.7778H16.1111V13.5556H17.8889V15.3333H16.1111V17.1111H14.3333V18.8889H12.5556V20.6667H10.7778V18.8889H9V20.6667H10.7778V22.4444H12.5556V20.6667H16.1111V22.4444H17.8889V24.2222H16.1111V26H17.8889V24.2222H19.6667V22.4444H17.8889V18.8889H19.6667V17.1111H21.4444V18.8889H23.2222V20.6667H25V18.8889H26.7778V17.1111H25V18.8889H23.2222V17.1111H21.4444V15.3333H23.2222V11.7778H19.6667V13.5556H17.8889V11.7778H16.1111V10Z" fill="#DF1818"/>
</svg>
