<svg width="122" height="44" viewBox="0 0 122 44" fill="none" xmlns="http://www.w3.org/2000/svg">
<mask id="path-1-outside-1_222_14776" maskUnits="userSpaceOnUse" x="-1" y="0" width="124" height="40" fill="black">
<rect fill="white" x="-1" width="124" height="40"/>
<path d="M2.48164 10.2754C3.5845 9.91081 4.61901 9.57357 5.58516 9.26367C6.56042 8.95378 7.58581 8.66211 8.66133 8.38867C9.73685 8.10612 10.7668 7.88281 11.7512 7.71875C12.5077 7.59115 13.2824 7.52734 14.0754 7.52734C15.397 7.52734 16.2629 7.5638 16.673 7.63672C17.2928 7.75521 17.8762 7.94661 18.423 8.21094C18.979 8.47526 19.4712 8.83073 19.8996 9.27734C20.3371 9.71484 20.6926 10.2344 20.966 10.8359C21.0754 11.082 21.1301 11.3418 21.1301 11.6152C21.1301 12.6361 20.5695 13.8939 19.4484 15.3887C18.3365 16.8835 17.2154 18.1868 16.0852 19.2988C14.9641 20.4108 14.1255 21.2083 13.5695 21.6914L16.0305 30.3184L12.4484 32.9023L6.17305 14.9785C6.15482 14.9785 6.06823 15.0651 5.91328 15.2383C5.75833 15.4115 5.55325 15.6393 5.29805 15.9219C5.05195 16.1953 4.897 16.3639 4.8332 16.4277C4.80586 16.4277 4.71471 16.2318 4.55976 15.8398C4.41393 15.4479 4.21341 14.9056 3.9582 14.2129C3.71211 13.5111 3.43411 12.7363 3.12422 11.8887C2.80521 11.0319 2.59101 10.4941 2.48164 10.2754ZM11.3273 14.0762L12.4484 18.1094C13.0135 17.5352 13.7154 16.7513 14.5539 15.7578C15.3924 14.7643 15.8117 14.0443 15.8117 13.5977C15.8117 13.4245 15.7388 13.3242 15.593 13.2969C15.1828 13.2057 14.7772 13.1602 14.3762 13.1602C13.173 13.1602 12.1568 13.4655 11.3273 14.0762ZM32.7977 17.1934C33.4448 17.5397 33.9689 18.0091 34.3699 18.6016C34.7801 19.1849 35.0763 19.8457 35.2586 20.584C35.45 21.3132 35.5457 22.0742 35.5457 22.8672C35.5457 23.5234 35.491 24.1569 35.3816 24.7676C35.2814 25.3783 35.1401 25.9388 34.9578 26.4492C34.7755 26.9596 34.5613 27.3926 34.3152 27.748C33.741 28.6048 33.1258 29.3431 32.4695 29.9629C31.8133 30.5827 31.1434 31.084 30.4598 31.4668C29.7762 31.8405 29.0971 32.1139 28.4227 32.2871C27.7573 32.4694 27.0965 32.5605 26.4402 32.5605C25.6655 32.5605 24.9272 32.4375 24.2254 32.1914C23.5327 31.9544 22.9402 31.64 22.448 31.248C21.6368 30.5736 21.0034 29.6667 20.5477 28.5273C20.0919 27.3789 19.8641 26.1667 19.8641 24.8906C19.8641 22.694 20.4975 20.9212 21.7645 19.5723C22.8491 18.4147 23.9702 17.5443 25.1277 16.9609C26.2853 16.3685 27.4702 16.0723 28.6824 16.0723C29.3934 16.0723 30.077 16.1634 30.7332 16.3457C31.3895 16.5189 32.0776 16.8014 32.7977 17.1934ZM31.991 19.4902C31.8361 20.1829 31.4988 20.7936 30.9793 21.3223C30.4689 21.8509 29.9676 22.1152 29.4754 22.1152C29.2293 22.1152 29.0105 22.0514 28.8191 21.9238C28.5457 21.7051 28.409 21.3223 28.409 20.7754C28.409 20.3561 28.5457 19.9414 28.8191 19.5312C29.1017 19.1211 29.5437 18.7975 30.1453 18.5605C29.5437 18.5605 28.9604 18.6745 28.3953 18.9023C27.8393 19.1302 27.3608 19.4264 26.9598 19.791C26.5587 20.1465 26.2352 20.5521 25.9891 21.0078C25.7521 21.4544 25.6336 21.9056 25.6336 22.3613C25.6336 23.209 26.0255 23.8835 26.8094 24.3848C27.5385 24.8496 28.2312 25.082 28.8875 25.082C29.5346 25.082 30.1089 24.8678 30.6102 24.4395C31.1115 24.002 31.4943 23.446 31.7586 22.7715C32.0229 22.0879 32.1551 21.4134 32.1551 20.748C32.1551 20.2923 32.1004 19.873 31.991 19.4902ZM34.6762 9.1543L41.6215 6.24219L42.6332 22.0332L48.348 18.9023L54.2816 19.791L46.5434 25.7246L53.8305 31.2207L54.1586 36.7031L43.4125 28.9785L43.7543 35.6914L37.2465 35.8145L36.016 12.0664L34.0062 12.5176L34.6762 9.1543ZM65.1973 24.4395L68.4922 28.418C68.2279 29.1836 67.599 29.8854 66.6055 30.5234C65.6211 31.1615 64.4453 31.6628 63.0781 32.0273C61.7201 32.401 60.362 32.5879 59.0039 32.5879C57.8008 32.5879 56.7253 32.4284 55.7773 32.1094C54.8385 31.7904 54.1139 31.3073 53.6035 30.6602C52.7194 29.5482 52.2773 28.1263 52.2773 26.3945C52.2773 25.0273 52.5234 23.6829 53.0156 22.3613C53.5169 21.0306 54.0456 20.1009 54.6016 19.5723C55.2669 18.9434 55.987 18.4193 56.7617 18C57.5456 17.5807 58.3568 17.2663 59.1953 17.0566C60.0339 16.847 60.8952 16.7422 61.7793 16.7422C62.9368 16.7422 64.0352 16.929 65.0742 17.3027C66.1224 17.6673 67.0384 18.2005 67.8223 18.9023L60.3164 27.8574C60.9818 27.8574 61.6107 27.7207 62.2031 27.4473C62.8047 27.1647 63.3561 26.7682 63.8574 26.2578C64.3587 25.7383 64.8053 25.1322 65.1973 24.4395ZM61.4102 21.2539C60.9635 21.026 60.5078 20.9121 60.043 20.9121C59.5508 20.9121 59.0723 21.0124 58.6074 21.2129C58.1517 21.4134 57.8281 21.6504 57.6367 21.9238C57.0716 22.653 56.7891 23.4551 56.7891 24.3301C56.7891 24.6491 56.821 24.9544 56.8848 25.2461C56.9486 25.5378 57.0579 25.9388 57.2129 26.4492L61.4102 21.2539ZM54.3828 11.3965L61.6699 7.36328L64.8008 12.1758L55.9551 13.8574L54.3828 11.3965ZM77.0699 18.6152C76.5686 18.679 76.0719 18.8385 75.5797 19.0938C75.0966 19.349 74.6819 19.6497 74.3355 19.9961C73.9892 20.3424 73.7157 20.7253 73.5152 21.1445C73.3238 21.5547 73.2281 21.9603 73.2281 22.3613C73.2281 23.1908 73.62 23.8652 74.4039 24.3848C75.0966 24.8496 75.7984 25.082 76.5094 25.082C76.6461 25.082 76.8329 25.0638 77.0699 25.0273V22.1152C76.8238 22.1152 76.6051 22.0514 76.4137 21.9238C76.1402 21.7051 76.0035 21.2858 76.0035 20.666C76.0035 19.7728 76.359 19.0892 77.0699 18.6152ZM76.9469 5.33984L82.6617 2.76953L83.0035 21.2812C83.0764 21.7552 83.1129 22.293 83.1129 22.8945C83.1129 23.4232 83.0947 23.8151 83.0582 24.0703L83.2223 32.4512L77.0699 32.7793V31.9453C76.0673 32.3555 75.0556 32.5605 74.0348 32.5605C73.2509 32.5605 72.5126 32.4421 71.8199 32.2051C71.1363 31.9681 70.5439 31.6491 70.0426 31.248C69.2314 30.5736 68.5979 29.6667 68.1422 28.5273C67.6865 27.3789 67.4586 26.1667 67.4586 24.8906C67.4586 22.694 68.0921 20.9212 69.359 19.5723C70.4527 18.4238 71.5784 17.5534 72.7359 16.9609C73.9026 16.3685 75.0921 16.0723 76.3043 16.0723C76.6415 16.0723 76.8967 16.0814 77.0699 16.0996L76.9469 5.33984ZM95.9973 24.4395L99.2922 28.418C99.0279 29.1836 98.399 29.8854 97.4055 30.5234C96.4211 31.1615 95.2453 31.6628 93.8781 32.0273C92.5201 32.401 91.162 32.5879 89.8039 32.5879C88.6008 32.5879 87.5253 32.4284 86.5773 32.1094C85.6385 31.7904 84.9139 31.3073 84.4035 30.6602C83.5194 29.5482 83.0773 28.1263 83.0773 26.3945C83.0773 25.0273 83.3234 23.6829 83.8156 22.3613C84.3169 21.0306 84.8456 20.1009 85.4016 19.5723C86.0669 18.9434 86.787 18.4193 87.5617 18C88.3456 17.5807 89.1568 17.2663 89.9953 17.0566C90.8339 16.847 91.6952 16.7422 92.5793 16.7422C93.7369 16.7422 94.8352 16.929 95.8742 17.3027C96.9224 17.6673 97.8384 18.2005 98.6223 18.9023L91.1164 27.8574C91.7818 27.8574 92.4107 27.7207 93.0031 27.4473C93.6047 27.1647 94.1561 26.7682 94.6574 26.2578C95.1587 25.7383 95.6053 25.1322 95.9973 24.4395ZM92.2102 21.2539C91.7635 21.026 91.3078 20.9121 90.843 20.9121C90.3508 20.9121 89.8723 21.0124 89.4074 21.2129C88.9517 21.4134 88.6281 21.6504 88.4367 21.9238C87.8716 22.653 87.5891 23.4551 87.5891 24.3301C87.5891 24.6491 87.621 24.9544 87.6848 25.2461C87.7486 25.5378 87.8579 25.9388 88.0129 26.4492L92.2102 21.2539ZM108.595 29.4023L105.286 33.6816L98.2312 33.9004L105.067 24.8633L97.3426 14.8691L104.835 15.1973L108.595 20.1602L112.341 15.1973L119.846 14.8691L112.122 24.8633L118.958 33.9004L111.889 33.6816L108.595 29.4023Z"/>
</mask>
<path d="M2.48164 10.2754C3.5845 9.91081 4.61901 9.57357 5.58516 9.26367C6.56042 8.95378 7.58581 8.66211 8.66133 8.38867C9.73685 8.10612 10.7668 7.88281 11.7512 7.71875C12.5077 7.59115 13.2824 7.52734 14.0754 7.52734C15.397 7.52734 16.2629 7.5638 16.673 7.63672C17.2928 7.75521 17.8762 7.94661 18.423 8.21094C18.979 8.47526 19.4712 8.83073 19.8996 9.27734C20.3371 9.71484 20.6926 10.2344 20.966 10.8359C21.0754 11.082 21.1301 11.3418 21.1301 11.6152C21.1301 12.6361 20.5695 13.8939 19.4484 15.3887C18.3365 16.8835 17.2154 18.1868 16.0852 19.2988C14.9641 20.4108 14.1255 21.2083 13.5695 21.6914L16.0305 30.3184L12.4484 32.9023L6.17305 14.9785C6.15482 14.9785 6.06823 15.0651 5.91328 15.2383C5.75833 15.4115 5.55325 15.6393 5.29805 15.9219C5.05195 16.1953 4.897 16.3639 4.8332 16.4277C4.80586 16.4277 4.71471 16.2318 4.55976 15.8398C4.41393 15.4479 4.21341 14.9056 3.9582 14.2129C3.71211 13.5111 3.43411 12.7363 3.12422 11.8887C2.80521 11.0319 2.59101 10.4941 2.48164 10.2754ZM11.3273 14.0762L12.4484 18.1094C13.0135 17.5352 13.7154 16.7513 14.5539 15.7578C15.3924 14.7643 15.8117 14.0443 15.8117 13.5977C15.8117 13.4245 15.7388 13.3242 15.593 13.2969C15.1828 13.2057 14.7772 13.1602 14.3762 13.1602C13.173 13.1602 12.1568 13.4655 11.3273 14.0762ZM32.7977 17.1934C33.4448 17.5397 33.9689 18.0091 34.3699 18.6016C34.7801 19.1849 35.0763 19.8457 35.2586 20.584C35.45 21.3132 35.5457 22.0742 35.5457 22.8672C35.5457 23.5234 35.491 24.1569 35.3816 24.7676C35.2814 25.3783 35.1401 25.9388 34.9578 26.4492C34.7755 26.9596 34.5613 27.3926 34.3152 27.748C33.741 28.6048 33.1258 29.3431 32.4695 29.9629C31.8133 30.5827 31.1434 31.084 30.4598 31.4668C29.7762 31.8405 29.0971 32.1139 28.4227 32.2871C27.7573 32.4694 27.0965 32.5605 26.4402 32.5605C25.6655 32.5605 24.9272 32.4375 24.2254 32.1914C23.5327 31.9544 22.9402 31.64 22.448 31.248C21.6368 30.5736 21.0034 29.6667 20.5477 28.5273C20.0919 27.3789 19.8641 26.1667 19.8641 24.8906C19.8641 22.694 20.4975 20.9212 21.7645 19.5723C22.8491 18.4147 23.9702 17.5443 25.1277 16.9609C26.2853 16.3685 27.4702 16.0723 28.6824 16.0723C29.3934 16.0723 30.077 16.1634 30.7332 16.3457C31.3895 16.5189 32.0776 16.8014 32.7977 17.1934ZM31.991 19.4902C31.8361 20.1829 31.4988 20.7936 30.9793 21.3223C30.4689 21.8509 29.9676 22.1152 29.4754 22.1152C29.2293 22.1152 29.0105 22.0514 28.8191 21.9238C28.5457 21.7051 28.409 21.3223 28.409 20.7754C28.409 20.3561 28.5457 19.9414 28.8191 19.5312C29.1017 19.1211 29.5437 18.7975 30.1453 18.5605C29.5437 18.5605 28.9604 18.6745 28.3953 18.9023C27.8393 19.1302 27.3608 19.4264 26.9598 19.791C26.5587 20.1465 26.2352 20.5521 25.9891 21.0078C25.7521 21.4544 25.6336 21.9056 25.6336 22.3613C25.6336 23.209 26.0255 23.8835 26.8094 24.3848C27.5385 24.8496 28.2312 25.082 28.8875 25.082C29.5346 25.082 30.1089 24.8678 30.6102 24.4395C31.1115 24.002 31.4943 23.446 31.7586 22.7715C32.0229 22.0879 32.1551 21.4134 32.1551 20.748C32.1551 20.2923 32.1004 19.873 31.991 19.4902ZM34.6762 9.1543L41.6215 6.24219L42.6332 22.0332L48.348 18.9023L54.2816 19.791L46.5434 25.7246L53.8305 31.2207L54.1586 36.7031L43.4125 28.9785L43.7543 35.6914L37.2465 35.8145L36.016 12.0664L34.0062 12.5176L34.6762 9.1543ZM65.1973 24.4395L68.4922 28.418C68.2279 29.1836 67.599 29.8854 66.6055 30.5234C65.6211 31.1615 64.4453 31.6628 63.0781 32.0273C61.7201 32.401 60.362 32.5879 59.0039 32.5879C57.8008 32.5879 56.7253 32.4284 55.7773 32.1094C54.8385 31.7904 54.1139 31.3073 53.6035 30.6602C52.7194 29.5482 52.2773 28.1263 52.2773 26.3945C52.2773 25.0273 52.5234 23.6829 53.0156 22.3613C53.5169 21.0306 54.0456 20.1009 54.6016 19.5723C55.2669 18.9434 55.987 18.4193 56.7617 18C57.5456 17.5807 58.3568 17.2663 59.1953 17.0566C60.0339 16.847 60.8952 16.7422 61.7793 16.7422C62.9368 16.7422 64.0352 16.929 65.0742 17.3027C66.1224 17.6673 67.0384 18.2005 67.8223 18.9023L60.3164 27.8574C60.9818 27.8574 61.6107 27.7207 62.2031 27.4473C62.8047 27.1647 63.3561 26.7682 63.8574 26.2578C64.3587 25.7383 64.8053 25.1322 65.1973 24.4395ZM61.4102 21.2539C60.9635 21.026 60.5078 20.9121 60.043 20.9121C59.5508 20.9121 59.0723 21.0124 58.6074 21.2129C58.1517 21.4134 57.8281 21.6504 57.6367 21.9238C57.0716 22.653 56.7891 23.4551 56.7891 24.3301C56.7891 24.6491 56.821 24.9544 56.8848 25.2461C56.9486 25.5378 57.0579 25.9388 57.2129 26.4492L61.4102 21.2539ZM54.3828 11.3965L61.6699 7.36328L64.8008 12.1758L55.9551 13.8574L54.3828 11.3965ZM77.0699 18.6152C76.5686 18.679 76.0719 18.8385 75.5797 19.0938C75.0966 19.349 74.6819 19.6497 74.3355 19.9961C73.9892 20.3424 73.7157 20.7253 73.5152 21.1445C73.3238 21.5547 73.2281 21.9603 73.2281 22.3613C73.2281 23.1908 73.62 23.8652 74.4039 24.3848C75.0966 24.8496 75.7984 25.082 76.5094 25.082C76.6461 25.082 76.8329 25.0638 77.0699 25.0273V22.1152C76.8238 22.1152 76.6051 22.0514 76.4137 21.9238C76.1402 21.7051 76.0035 21.2858 76.0035 20.666C76.0035 19.7728 76.359 19.0892 77.0699 18.6152ZM76.9469 5.33984L82.6617 2.76953L83.0035 21.2812C83.0764 21.7552 83.1129 22.293 83.1129 22.8945C83.1129 23.4232 83.0947 23.8151 83.0582 24.0703L83.2223 32.4512L77.0699 32.7793V31.9453C76.0673 32.3555 75.0556 32.5605 74.0348 32.5605C73.2509 32.5605 72.5126 32.4421 71.8199 32.2051C71.1363 31.9681 70.5439 31.6491 70.0426 31.248C69.2314 30.5736 68.5979 29.6667 68.1422 28.5273C67.6865 27.3789 67.4586 26.1667 67.4586 24.8906C67.4586 22.694 68.0921 20.9212 69.359 19.5723C70.4527 18.4238 71.5784 17.5534 72.7359 16.9609C73.9026 16.3685 75.0921 16.0723 76.3043 16.0723C76.6415 16.0723 76.8967 16.0814 77.0699 16.0996L76.9469 5.33984ZM95.9973 24.4395L99.2922 28.418C99.0279 29.1836 98.399 29.8854 97.4055 30.5234C96.4211 31.1615 95.2453 31.6628 93.8781 32.0273C92.5201 32.401 91.162 32.5879 89.8039 32.5879C88.6008 32.5879 87.5253 32.4284 86.5773 32.1094C85.6385 31.7904 84.9139 31.3073 84.4035 30.6602C83.5194 29.5482 83.0773 28.1263 83.0773 26.3945C83.0773 25.0273 83.3234 23.6829 83.8156 22.3613C84.3169 21.0306 84.8456 20.1009 85.4016 19.5723C86.0669 18.9434 86.787 18.4193 87.5617 18C88.3456 17.5807 89.1568 17.2663 89.9953 17.0566C90.8339 16.847 91.6952 16.7422 92.5793 16.7422C93.7369 16.7422 94.8352 16.929 95.8742 17.3027C96.9224 17.6673 97.8384 18.2005 98.6223 18.9023L91.1164 27.8574C91.7818 27.8574 92.4107 27.7207 93.0031 27.4473C93.6047 27.1647 94.1561 26.7682 94.6574 26.2578C95.1587 25.7383 95.6053 25.1322 95.9973 24.4395ZM92.2102 21.2539C91.7635 21.026 91.3078 20.9121 90.843 20.9121C90.3508 20.9121 89.8723 21.0124 89.4074 21.2129C88.9517 21.4134 88.6281 21.6504 88.4367 21.9238C87.8716 22.653 87.5891 23.4551 87.5891 24.3301C87.5891 24.6491 87.621 24.9544 87.6848 25.2461C87.7486 25.5378 87.8579 25.9388 88.0129 26.4492L92.2102 21.2539ZM108.595 29.4023L105.286 33.6816L98.2312 33.9004L105.067 24.8633L97.3426 14.8691L104.835 15.1973L108.595 20.1602L112.341 15.1973L119.846 14.8691L112.122 24.8633L118.958 33.9004L111.889 33.6816L108.595 29.4023Z" fill="white"/>
<path d="M2.48164 10.2754L1.54002 7.427L-0.201642 11.617L2.48164 10.2754ZM5.58516 9.26367L4.67664 6.40453L4.66887 6.40703L5.58516 9.26367ZM8.66133 8.38867L9.40052 11.2962L9.4236 11.2902L8.66133 8.38867ZM11.7512 7.71875L12.2444 10.6779L12.2501 10.677L11.7512 7.71875ZM16.673 7.63672L17.2364 4.69008L17.1981 4.68303L16.673 7.63672ZM18.423 8.21094L17.1175 10.912L17.135 10.9203L18.423 8.21094ZM19.8996 9.27734L17.7346 11.354L17.7783 11.3987L19.8996 9.27734ZM20.966 10.8359L23.7074 9.61752L23.6971 9.59453L20.966 10.8359ZM19.4484 15.3887L17.0484 13.5887L17.0414 13.5981L19.4484 15.3887ZM16.0852 19.2988L13.9811 17.1603L13.9725 17.1689L16.0852 19.2988ZM13.5695 21.6914L11.6019 19.4268L10.6846 22.5144L13.5695 21.6914ZM16.0305 30.3184L17.7856 32.7514L18.9154 29.4954L16.0305 30.3184ZM12.4484 32.9023L9.61696 33.8937L14.2036 35.3354L12.4484 32.9023ZM6.17305 14.9785L9.00452 13.9872L6.17305 11.9785V14.9785ZM5.29805 15.9219L3.07173 13.911L3.06816 13.915L5.29805 15.9219ZM4.8332 16.4277V19.4277L6.95452 18.5491L4.8332 16.4277ZM4.55976 15.8398L1.7481 16.886L1.76988 16.9428L4.55976 15.8398ZM3.9582 14.2129L1.1272 15.2056L1.14317 15.25L3.9582 14.2129ZM3.12422 11.8887L5.94182 10.8586L5.93566 10.8419L3.12422 11.8887ZM11.3273 14.0762L9.54865 11.6603L8.43693 14.8796L11.3273 14.0762ZM12.4484 18.1094L9.55802 18.9128L14.5867 20.2137L12.4484 18.1094ZM14.5539 15.7578L16.8465 17.6928L14.5539 15.7578ZM15.593 13.2969L14.9422 16.2254L15.0401 16.2455L15.593 13.2969ZM3.42326 13.1238C4.51887 12.7616 5.54485 12.4271 6.50144 12.1203L4.66887 6.40703C3.69317 6.71999 2.65014 7.06001 1.54002 7.427L3.42326 13.1238ZM6.49366 12.1228C7.40853 11.8321 8.37719 11.5563 9.40052 11.2962L7.92213 5.48117C6.79442 5.76787 5.7123 6.07546 4.67665 6.40454L6.49366 12.1228ZM9.4236 11.2902C10.4202 11.0284 11.3601 10.8253 12.2444 10.6779L11.258 4.75957C10.1735 4.94031 9.05347 5.18385 7.89906 5.48713L9.4236 11.2902ZM12.2501 10.677C12.8364 10.5781 13.444 10.5273 14.0754 10.5273V4.52734C13.1208 4.52734 12.179 4.60421 11.2522 4.76054L12.2501 10.677ZM14.0754 10.5273C14.7134 10.5273 15.2146 10.5362 15.5898 10.552C15.9996 10.5693 16.1512 10.591 16.1479 10.5904L17.1981 4.68303C16.4805 4.55545 15.3409 4.52734 14.0754 4.52734V10.5273ZM16.1097 10.5834C16.4825 10.6546 16.8153 10.7659 17.1175 10.912L19.7286 5.50989C18.937 5.12733 18.1032 4.8558 17.2364 4.69008L16.1097 10.5834ZM17.135 10.9203C17.361 11.0278 17.5564 11.1683 17.7346 11.354L22.0647 7.20067C21.386 6.49317 20.5971 5.92274 19.7111 5.50154L17.135 10.9203ZM17.7783 11.3987C17.9446 11.5649 18.1001 11.7808 18.2349 12.0773L23.6971 9.59453C23.285 8.6879 22.7297 7.86475 22.0209 7.15602L17.7783 11.3987ZM18.2246 12.0544C18.1608 11.9109 18.1301 11.7549 18.1301 11.6152H24.1301C24.1301 10.9287 23.99 10.2532 23.7074 9.61752L18.2246 12.0544ZM18.1301 11.6152C18.1301 11.5853 18.1349 11.7317 17.9695 12.103C17.8064 12.4689 17.5186 12.9618 17.0484 13.5887L21.8484 17.1887C23.0767 15.5509 24.1301 13.6355 24.1301 11.6152H18.1301ZM17.0414 13.5981C16.0059 14.9901 14.9845 16.1731 13.9812 17.1603L18.1892 21.4373C19.4462 20.2006 20.667 18.7768 21.8555 17.1793L17.0414 13.5981ZM13.9725 17.1689C12.8579 18.2744 12.0784 19.0128 11.6019 19.4268L15.5371 23.956C16.1726 23.4039 17.0702 22.5472 18.1978 21.4288L13.9725 17.1689ZM10.6846 22.5144L13.1456 31.1413L18.9154 29.4954L16.4544 20.8685L10.6846 22.5144ZM14.2754 27.8853L10.6933 30.4693L14.2036 35.3354L17.7856 32.7514L14.2754 27.8853ZM15.2799 31.911L9.00452 13.9872L3.34157 15.9699L9.61696 33.8937L15.2799 31.911ZM6.17305 11.9785C5.62778 11.9785 5.21871 12.1278 5.04446 12.1982C4.83888 12.2813 4.68365 12.3706 4.59532 12.4248C4.41965 12.5324 4.29166 12.6358 4.23591 12.6819C4.11364 12.7829 4.01793 12.8773 3.97311 12.9221C3.87001 13.0252 3.76554 13.1396 3.67756 13.2379L8.149 17.2387C8.21597 17.1638 8.23227 17.1483 8.21575 17.1648C8.21423 17.1663 8.15327 17.2283 8.0572 17.3076C8.01455 17.3429 7.89753 17.4381 7.73069 17.5404C7.64678 17.5918 7.49543 17.6791 7.29319 17.7609C7.12229 17.8299 6.71603 17.9785 6.17305 17.9785V11.9785ZM3.67756 13.2379C3.52707 13.4061 3.32551 13.6301 3.07174 13.911L7.52435 17.9327C7.781 17.6486 7.98959 17.4168 8.149 17.2387L3.67756 13.2379ZM3.06816 13.915C2.94845 14.048 2.85587 14.15 2.78828 14.2235C2.75448 14.2603 2.73005 14.2866 2.71354 14.3041C2.69383 14.3251 2.69617 14.3221 2.71188 14.3064L6.95452 18.5491C7.08694 18.4166 7.30224 18.1795 7.52793 17.9288L3.06816 13.915ZM4.8332 13.4277C5.70112 13.4277 6.30265 13.7977 6.53702 13.9603C6.80699 14.1475 6.98464 14.3377 7.06794 14.432C7.2383 14.6247 7.34034 14.7931 7.36793 14.8387C7.40932 14.9072 7.43612 14.9588 7.44627 14.9786C7.45261 14.991 7.45719 15.0004 7.45991 15.0059C7.46267 15.0116 7.46423 15.015 7.4645 15.0156C7.46485 15.0163 7.4621 15.0104 7.45593 14.9963C7.4499 14.9825 7.44175 14.9635 7.43134 14.9386C7.41027 14.8883 7.38323 14.8218 7.34965 14.7369L1.76988 16.9428C1.85281 17.1526 1.94035 17.3657 2.02417 17.546C2.0602 17.6234 2.13331 17.7775 2.23354 17.9432C2.27594 18.0134 2.39079 18.2001 2.57197 18.4051C2.66069 18.5055 2.84325 18.7003 3.11763 18.8906C3.35642 19.0562 3.96187 19.4277 4.8332 19.4277V13.4277ZM7.37143 14.7936C7.22726 14.4062 7.02803 13.8674 6.77323 13.1758L1.14317 15.25C1.39879 15.9438 1.6006 16.4896 1.7481 16.886L7.37143 14.7936ZM6.7892 13.2202C6.53792 12.5036 6.25535 11.7162 5.94182 10.8586L0.306611 12.9188C0.612879 13.7565 0.886294 14.5185 1.1272 15.2056L6.7892 13.2202ZM5.93566 10.8419C5.63506 10.0345 5.36174 9.32738 5.16492 8.93375L-0.201642 11.617C-0.209313 11.6017 -0.169144 11.6857 -0.0627404 11.9529C0.0326539 12.1924 0.157221 12.5177 0.31278 12.9355L5.93566 10.8419ZM8.43693 14.8796L9.55802 18.9128L15.3389 17.3059L14.2178 13.2727L8.43693 14.8796ZM14.5867 20.2137C15.2276 19.5624 15.9845 18.714 16.8465 17.6928L12.2614 13.8228C11.4462 14.7886 10.7995 15.5079 10.3102 16.0051L14.5867 20.2137ZM16.8465 17.6928C17.3231 17.1281 17.7584 16.5514 18.0898 15.9822C18.3713 15.4987 18.8117 14.6373 18.8117 13.5977H12.8117C12.8117 13.2579 12.8873 13.0321 12.9099 12.9693C12.9361 12.8965 12.9469 12.8907 12.9047 12.9631C12.8654 13.0307 12.7965 13.138 12.6858 13.2888C12.5764 13.4378 12.4365 13.6153 12.2614 13.8228L16.8465 17.6928ZM18.8117 13.5977C18.8117 13.1219 18.7146 12.3587 18.1832 11.6281C17.6103 10.8402 16.8141 10.4736 16.1458 10.3483L15.0401 16.2455C14.5176 16.1475 13.8309 15.8447 13.3308 15.1571C12.8723 14.5267 12.8117 13.9002 12.8117 13.5977H18.8117ZM16.2438 10.3683C15.6301 10.2319 15.0063 10.1602 14.3762 10.1602V16.1602C14.5482 16.1602 14.7355 16.1795 14.9422 16.2254L16.2438 10.3683ZM14.3762 10.1602C12.6443 10.1602 10.9764 10.6091 9.54865 11.6603L13.106 16.492C13.3371 16.3219 13.7018 16.1602 14.3762 16.1602V10.1602ZM32.7977 17.1934L31.3634 19.8283L31.382 19.8384L32.7977 17.1934ZM34.3699 18.6016L31.8856 20.2833L31.9158 20.3271L34.3699 18.6016ZM35.2586 20.584L32.3461 21.3031L32.3569 21.3457L35.2586 20.584ZM35.3816 24.7676L32.4286 24.2387L32.4213 24.2815L35.3816 24.7676ZM34.3152 27.748L31.8487 26.0404L31.8232 26.0778L34.3152 27.748ZM30.4598 31.4668L31.8988 34.0991L31.9256 34.0843L30.4598 31.4668ZM28.4227 32.2871L27.6766 29.3814L27.6299 29.3937L28.4227 32.2871ZM24.2254 32.1914L25.2181 29.3604L25.1965 29.3529L24.2254 32.1914ZM22.448 31.248L20.53 33.5548L20.5793 33.5949L22.448 31.248ZM20.5477 28.5273L17.7592 29.6339L17.7622 29.6415L20.5477 28.5273ZM21.7645 19.5723L23.9512 21.6261L23.9536 21.6235L21.7645 19.5723ZM25.1277 16.9609L26.4778 19.64L26.4945 19.6315L25.1277 16.9609ZM30.7332 16.3457L29.9303 19.2363L29.9677 19.2464L30.7332 16.3457ZM31.991 19.4902L34.8756 18.6661L29.0634 18.8354L31.991 19.4902ZM30.9793 21.3223L28.8396 19.2195L28.8211 19.2385L30.9793 21.3223ZM28.8191 21.9238L26.9451 24.2664L27.155 24.42L28.8191 21.9238ZM28.8191 19.5312L26.3486 17.8293L26.323 17.8671L28.8191 19.5312ZM30.1453 18.5605L31.2449 21.3518L30.1453 15.5605V18.5605ZM28.3953 18.9023L27.2734 16.12L27.2576 16.1264L28.3953 18.9023ZM26.9598 19.791L28.9497 22.0361L28.9778 22.0108L26.9598 19.791ZM25.9891 21.0078L23.3493 19.5824L23.339 19.6017L25.9891 21.0078ZM26.8094 24.3848L25.193 26.9121L25.1967 26.9144L26.8094 24.3848ZM30.6102 24.4395L32.5591 26.7201L32.5828 26.6997L30.6102 24.4395ZM31.7586 22.7715L34.5518 23.8661L34.5567 23.8534L31.7586 22.7715ZM31.382 19.8384C31.6116 19.9612 31.7646 20.1046 31.8856 20.2833L36.8542 16.9199C36.1731 15.9137 35.2779 15.1182 34.2133 14.5484L31.382 19.8384ZM31.9158 20.3271C32.0983 20.5865 32.2469 20.9016 32.3461 21.3031L38.1711 19.8648C37.9057 18.7898 37.4619 17.7833 36.824 16.876L31.9158 20.3271ZM32.3569 21.3457C32.4797 21.8136 32.5457 22.318 32.5457 22.8672H38.5457C38.5457 21.8305 38.4203 20.8127 38.1603 19.8223L32.3569 21.3457ZM32.5457 22.8672C32.5457 23.3563 32.505 23.8123 32.4286 24.2387L38.3346 25.2965C38.477 24.5015 38.5457 23.6906 38.5457 22.8672H32.5457ZM32.4213 24.2815C32.3462 24.7387 32.2464 25.1216 32.1326 25.4402L37.783 27.4582C38.0338 26.756 38.2165 26.0178 38.342 25.2536L32.4213 24.2815ZM32.1326 25.4402C32.0174 25.7627 31.9129 25.9476 31.8487 26.0404L36.7818 29.4557C37.2097 28.8375 37.5336 28.1566 37.783 27.4582L32.1326 25.4402ZM31.8232 26.0778C31.3562 26.7746 30.8821 27.3356 30.4097 27.7819L34.5294 32.1439C35.3694 31.3506 36.1258 30.4351 36.8073 29.4183L31.8232 26.0778ZM30.4097 27.7819C29.9062 28.2574 29.4327 28.6036 28.994 28.8493L31.9256 34.0843C32.8541 33.5644 33.7204 32.908 34.5294 32.1439L30.4097 27.7819ZM29.0207 28.8345C28.5304 29.1025 28.083 29.277 27.6766 29.3814L29.1687 35.1929C30.1113 34.9509 31.022 34.5785 31.8988 34.0991L29.0207 28.8345ZM27.6299 29.3937C27.2096 29.5089 26.8153 29.5605 26.4402 29.5605V35.5605C27.3777 35.5605 28.3049 35.4299 29.2154 35.1805L27.6299 29.3937ZM26.4402 29.5605C25.9893 29.5605 25.5877 29.49 25.2181 29.3604L23.2327 35.0224C24.2667 35.385 25.3417 35.5605 26.4402 35.5605V29.5605ZM25.1965 29.3529C24.7767 29.2093 24.5001 29.0472 24.3168 28.9012L20.5793 33.5949C21.3803 34.2328 22.2886 34.6995 23.2543 35.0299L25.1965 29.3529ZM24.366 28.9413C23.9971 28.6345 23.6338 28.165 23.3331 27.4132L17.7622 29.6415C18.373 31.1683 19.2766 32.5126 20.53 33.5548L24.366 28.9413ZM23.3361 27.4208C23.0247 26.6361 22.8641 25.8004 22.8641 24.8906H16.8641C16.8641 26.5329 17.1591 28.1217 17.7592 29.6339L23.3361 27.4208ZM22.8641 24.8906C22.8641 23.3054 23.3021 22.3172 23.9512 21.6261L19.5777 17.5185C17.693 19.5252 16.8641 22.0827 16.8641 24.8906H22.8641ZM23.9536 21.6235C24.8496 20.6673 25.6961 20.0339 26.4778 19.64L23.7777 14.2819C22.2443 15.0546 20.8486 16.1622 19.5753 17.521L23.9536 21.6235ZM26.4945 19.6315C27.2605 19.2394 27.9796 19.0723 28.6824 19.0723V13.0723C26.9607 13.0723 25.31 13.4975 23.7609 14.2904L26.4945 19.6315ZM28.6824 19.0723C29.1339 19.0723 29.5467 19.1297 29.9303 19.2363L31.5361 13.4551C30.6072 13.1971 29.6528 13.0723 28.6824 13.0723V19.0723ZM29.9677 19.2464C30.349 19.347 30.8127 19.5285 31.3634 19.8283L34.2319 14.5584C33.3425 14.0743 32.4299 13.6907 31.4987 13.445L29.9677 19.2464ZM29.0634 18.8354C29.0363 18.9565 28.9846 19.0719 28.8396 19.2195L33.119 23.4251C34.013 22.5153 34.6359 21.4094 34.9187 20.1451L29.0634 18.8354ZM28.8211 19.2385C28.7251 19.3379 28.7209 19.3162 28.8213 19.2633C28.9362 19.2027 29.1646 19.1152 29.4754 19.1152V25.1152C31.1091 25.1152 32.3392 24.2329 33.1375 23.406L28.8211 19.2385ZM29.4754 19.1152C29.7782 19.1152 30.1469 19.2035 30.4832 19.4277L27.155 24.42C27.8741 24.8994 28.6804 25.1152 29.4754 25.1152V19.1152ZM30.6932 19.5812C31.0571 19.8724 31.2485 20.2167 31.3367 20.4636C31.4163 20.6864 31.409 20.8161 31.409 20.7754H25.409C25.409 21.7176 25.6365 23.2196 26.9451 24.2664L30.6932 19.5812ZM31.409 20.7754C31.409 20.898 31.3881 21.0062 31.3607 21.0892C31.3345 21.1687 31.3094 21.2042 31.3153 21.1954L26.323 17.8671C25.78 18.6817 25.409 19.6658 25.409 20.7754H31.409ZM31.2897 21.2332C31.2219 21.3315 31.158 21.3846 31.1345 21.4018C31.115 21.4161 31.1415 21.3925 31.2449 21.3518L29.0457 15.7693C28.0529 16.1604 27.0574 16.8004 26.3486 17.8293L31.2897 21.2332ZM30.1453 15.5605C29.1542 15.5605 28.1904 15.7503 27.2734 16.12L29.5172 21.6847C29.7305 21.5987 29.9333 21.5605 30.1453 21.5605V15.5605ZM27.2576 16.1264C26.413 16.4726 25.6282 16.9472 24.9417 17.5712L28.9778 22.0108C29.0935 21.9057 29.2656 21.7878 29.533 21.6783L27.2576 16.1264ZM24.9698 17.546C24.3151 18.1263 23.7682 18.8068 23.3493 19.5824L28.6288 22.4333C28.7022 22.2974 28.8023 22.1667 28.9497 22.0361L24.9698 17.546ZM23.339 19.6017C22.8978 20.4331 22.6336 21.3635 22.6336 22.3613H28.6336C28.6336 22.3778 28.6325 22.394 28.6305 22.409C28.6286 22.4241 28.626 22.4357 28.6241 22.4432C28.6199 22.4591 28.62 22.4499 28.6391 22.414L23.339 19.6017ZM22.6336 22.3613C22.6336 24.3458 23.6473 25.9236 25.193 26.9121L28.4257 21.8574C28.3591 21.8148 28.4353 21.8475 28.5214 21.9957C28.5625 22.0665 28.5933 22.1427 28.6123 22.2165C28.631 22.289 28.6336 22.3406 28.6336 22.3613H22.6336ZM25.1967 26.9144C26.2577 27.5908 27.5048 28.082 28.8875 28.082V22.082C28.9577 22.082 28.8194 22.1084 28.422 21.8551L25.1967 26.9144ZM28.8875 28.082C30.2639 28.082 31.5258 27.6031 32.5591 26.7201L28.6612 22.1588C28.657 22.1623 28.6891 22.1352 28.755 22.1106C28.8218 22.0857 28.8733 22.082 28.8875 22.082V28.082ZM32.5828 26.6997C33.4788 25.9177 34.1275 24.9487 34.5518 23.8661L28.9654 21.6769C28.861 21.9432 28.7441 22.0862 28.6376 22.1792L32.5828 26.6997ZM34.5567 23.8534C34.9409 22.8598 35.1551 21.8192 35.1551 20.748H29.1551C29.1551 21.0076 29.1049 21.316 28.9605 21.6895L34.5567 23.8534ZM35.1551 20.748C35.1551 20.053 35.0717 19.3524 34.8756 18.6661L29.1064 20.3144C29.1291 20.3937 29.1551 20.5316 29.1551 20.748H35.1551ZM34.6762 9.1543L33.5161 6.38765L31.734 8.56825L34.6762 9.1543ZM41.6215 6.24219L44.6153 6.05037L40.4615 3.47554L41.6215 6.24219ZM42.6332 22.0332L39.6393 22.225L44.0746 24.6642L42.6332 22.0332ZM48.348 18.9023L48.7924 15.9354L46.9066 16.2713L48.348 18.9023ZM54.2816 19.791L56.1071 22.1717L54.726 16.8241L54.2816 19.791ZM46.5434 25.7246L44.7179 23.3439L44.7369 28.1197L46.5434 25.7246ZM53.8305 31.2207L56.8251 31.0415L55.6369 28.8256L53.8305 31.2207ZM54.1586 36.7031L52.4076 39.1391L57.1532 36.5239L54.1586 36.7031ZM43.4125 28.9785L45.1635 26.5426L40.4164 29.1311L43.4125 28.9785ZM43.7543 35.6914L43.811 38.6909L46.7504 35.5389L43.7543 35.6914ZM37.2465 35.8145L34.2505 35.9697L37.3032 38.8139L37.2465 35.8145ZM36.016 12.0664L39.012 11.9112L35.3589 9.13926L36.016 12.0664ZM34.0062 12.5176L31.064 11.9315L34.6634 15.4447L34.0062 12.5176ZM35.8362 11.9209L42.7815 9.00883L40.4615 3.47554L33.5161 6.38765L35.8362 11.9209ZM38.6276 6.434L39.6393 22.225L45.6271 21.8414L44.6153 6.05037L38.6276 6.434ZM44.0746 24.6642L49.7895 21.5334L46.9066 16.2713L41.1918 19.4022L44.0746 24.6642ZM47.9037 21.8693L53.8373 22.7579L54.726 16.8241L48.7924 15.9354L47.9037 21.8693ZM52.4562 17.4103L44.7179 23.3439L48.3688 28.1053L56.1071 22.1717L52.4562 17.4103ZM44.7369 28.1197L52.024 33.6158L55.6369 28.8256L48.3498 23.3295L44.7369 28.1197ZM50.8358 31.3999L51.164 36.8824L57.1532 36.5239L56.8251 31.0415L50.8358 31.3999ZM55.9096 34.2672L45.1635 26.5426L41.6615 31.4145L52.4076 39.1391L55.9096 34.2672ZM40.4164 29.1311L40.7582 35.844L46.7504 35.5389L46.4086 28.826L40.4164 29.1311ZM43.6976 32.6919L37.1898 32.815L37.3032 38.8139L43.811 38.6909L43.6976 32.6919ZM40.2425 35.6592L39.012 11.9112L33.02 12.2216L34.2505 35.9697L40.2425 35.6592ZM35.3589 9.13926L33.3491 9.59043L34.6634 15.4447L36.6731 14.9936L35.3589 9.13926ZM36.9484 13.1036L37.6184 9.74035L31.734 8.56825L31.064 11.9315L36.9484 13.1036ZM65.1973 24.4395L67.5078 22.5259L62.5862 22.9621L65.1973 24.4395ZM68.4922 28.418L71.3279 29.397L70.8027 26.5045L68.4922 28.418ZM66.6055 30.5234L64.9844 27.9991L64.9738 28.006L66.6055 30.5234ZM63.0781 32.0273L62.3051 29.1286L62.2822 29.1349L63.0781 32.0273ZM55.7773 32.1094L54.8121 34.9499L54.8205 34.9527L55.7773 32.1094ZM53.6035 30.6602L55.959 28.8023L55.9517 28.7931L53.6035 30.6602ZM53.0156 22.3613L50.2082 21.3037L50.2043 21.3143L53.0156 22.3613ZM54.6016 19.5723L52.5408 17.392L52.5344 17.3982L54.6016 19.5723ZM56.7617 18L55.3468 15.3546L55.3339 15.3616L56.7617 18ZM59.1953 17.0566L58.4677 14.1462L59.1953 17.0566ZM65.0742 17.3027L64.0589 20.1257L64.0887 20.1362L65.0742 17.3027ZM67.8223 18.9023L70.1215 20.8294L69.8234 16.6673L67.8223 18.9023ZM60.3164 27.8574L58.0172 25.9303L60.3164 30.8574V27.8574ZM62.2031 27.4473L63.4603 30.1711L63.4785 30.1627L62.2031 27.4473ZM63.8574 26.2578L65.9978 28.3599L66.0163 28.3409L63.8574 26.2578ZM61.4102 21.2539L63.7437 23.1392L62.7736 18.5816L61.4102 21.2539ZM58.6074 21.2129L57.4191 18.4583L57.3992 18.4669L58.6074 21.2129ZM57.6367 21.9238L60.008 23.7615L60.0944 23.6442L57.6367 21.9238ZM56.8848 25.2461L53.9541 25.8872L56.8848 25.2461ZM57.2129 26.4492L54.3422 27.3207L59.5465 28.3345L57.2129 26.4492ZM54.3828 11.3965L52.9301 8.77169L51.8547 13.0117L54.3828 11.3965ZM61.6699 7.36328L64.1846 5.72731L60.2172 4.73849L61.6699 7.36328ZM64.8008 12.1758L65.3611 15.123L67.3155 10.5398L64.8008 12.1758ZM55.9551 13.8574L53.427 15.4726L56.5154 16.8046L55.9551 13.8574ZM62.8868 26.353L66.1817 30.3315L70.8027 26.5045L67.5078 22.5259L62.8868 26.353ZM65.6564 27.439C65.6927 27.3338 65.6618 27.5641 64.9844 27.9991L68.2266 33.0477C69.5361 32.2068 70.763 31.0334 71.3279 29.397L65.6564 27.439ZM64.9738 28.006C64.3018 28.4415 63.4285 28.8291 62.3051 29.1286L63.8511 34.926C65.4621 34.4965 66.9403 33.8814 68.2372 33.0409L64.9738 28.006ZM62.2822 29.1349C61.1737 29.4399 60.0832 29.5879 59.0039 29.5879V35.5879C60.6408 35.5879 62.2664 35.3622 63.874 34.9198L62.2822 29.1349ZM59.0039 29.5879C58.0622 29.5879 57.3185 29.4627 56.7342 29.2661L54.8205 34.9527C56.132 35.3941 57.5394 35.5879 59.0039 35.5879V29.5879ZM56.7426 29.2689C56.2397 29.098 56.0434 28.9093 55.959 28.8023L51.248 32.518C52.1844 33.7052 53.4374 34.4827 54.8121 34.9499L56.7426 29.2689ZM55.9517 28.7931C55.576 28.3205 55.2773 27.6013 55.2773 26.3945H49.2773C49.2773 28.6513 49.8628 30.7759 51.2553 32.5272L55.9517 28.7931ZM55.2773 26.3945C55.2773 25.3961 55.4556 24.4057 55.827 23.4083L50.2043 21.3143C49.5913 22.9602 49.2773 24.6586 49.2773 26.3945H55.2773ZM55.823 23.4189C56.0352 22.8556 56.2296 22.4414 56.396 22.1489C56.5675 21.8472 56.6693 21.7458 56.6687 21.7464L52.5344 17.3982C51.4777 18.4028 50.7553 19.8515 50.2082 21.3037L55.823 23.4189ZM56.6623 21.7525C57.1451 21.2962 57.6538 20.9284 58.1896 20.6384L55.3339 15.3616C54.3202 15.9102 53.3888 16.5906 52.5408 17.3921L56.6623 21.7525ZM58.1767 20.6454C58.7494 20.339 59.3303 20.1152 59.9229 19.9671L58.4677 14.1462C57.3833 14.4173 56.3418 14.8224 55.3468 15.3546L58.1767 20.6454ZM59.9229 19.9671C60.5181 19.8183 61.1348 19.7422 61.7793 19.7422V13.7422C60.6555 13.7422 59.5496 13.8757 58.4677 14.1462L59.9229 19.9671ZM61.7793 19.7422C62.6076 19.7422 63.3611 19.8747 64.0589 20.1257L66.0895 14.4798C64.7092 13.9833 63.2661 13.7422 61.7793 13.7422V19.7422ZM64.0887 20.1362C64.7829 20.3777 65.3489 20.7146 65.8211 21.1374L69.8234 16.6673C68.7279 15.6865 67.4619 14.9569 66.0598 14.4692L64.0887 20.1362ZM65.5231 16.9752L58.0172 25.9303L62.6156 29.7845L70.1215 20.8294L65.5231 16.9752ZM60.3164 30.8574C61.4071 30.8574 62.4658 30.6302 63.4603 30.1711L60.946 24.7234C60.7556 24.8113 60.5565 24.8574 60.3164 24.8574V30.8574ZM63.4785 30.1627C64.4264 29.7174 65.266 29.105 65.9978 28.3599L61.7171 24.1557C61.4462 24.4315 61.183 24.612 60.9277 24.7319L63.4785 30.1627ZM66.0163 28.3409C66.7102 27.6218 67.3044 26.8074 67.8083 25.9168L62.5862 22.9621C62.3063 23.4569 62.0073 23.8547 61.6986 24.1747L66.0163 28.3409ZM62.7736 18.5816C61.9387 18.1557 61.0185 17.9121 60.043 17.9121V23.9121C60.0363 23.9121 60.0289 23.9117 60.0214 23.9108C60.014 23.9098 60.0086 23.9087 60.0058 23.908C60.0031 23.9073 60.0046 23.9075 60.0108 23.9098C60.0171 23.9122 60.029 23.9171 60.0467 23.9262L62.7736 18.5816ZM60.043 17.9121C59.1303 17.9121 58.2483 18.1006 57.4191 18.4583L59.7957 23.9675C59.8963 23.9241 59.9712 23.9121 60.043 23.9121V17.9121ZM57.3992 18.4669C56.6712 18.7873 55.8036 19.3112 55.179 20.2034L60.0944 23.6442C59.968 23.8248 59.8471 23.9236 59.7956 23.9613C59.7455 23.998 59.7415 23.9915 59.8156 23.9588L57.3992 18.4669ZM55.2655 20.0861C54.3165 21.3106 53.7891 22.752 53.7891 24.3301H59.7891C59.7891 24.1581 59.8267 23.9954 60.008 23.7615L55.2655 20.0861ZM53.7891 24.3301C53.7891 24.85 53.8412 25.3711 53.9541 25.8872L59.8155 24.605C59.8008 24.5378 59.7891 24.4482 59.7891 24.3301H53.7891ZM53.9541 25.8872C54.0431 26.294 54.1791 26.7833 54.3422 27.3207L60.0835 25.5778C59.9368 25.0943 59.8541 24.7815 59.8155 24.605L53.9541 25.8872ZM59.5465 28.3345L63.7437 23.1392L59.0766 19.3686L54.8793 24.5639L59.5465 28.3345ZM55.8356 14.0213L63.1227 9.98807L60.2172 4.73849L52.9301 8.77169L55.8356 14.0213ZM59.1552 8.99925L62.2861 13.8118L67.3155 10.5398L64.1846 5.72731L59.1552 8.99925ZM64.2405 9.22857L55.3948 10.9102L56.5154 16.8046L65.3611 15.123L64.2405 9.22857ZM58.4832 12.2423L56.9109 9.78132L51.8547 13.0117L53.427 15.4726L58.4832 12.2423ZM77.0699 18.6152L78.734 21.1114L76.6912 15.6392L77.0699 18.6152ZM75.5797 19.0938L74.1987 16.4305L74.1783 16.4412L75.5797 19.0938ZM73.5152 21.1445L70.8088 19.8502L70.7967 19.8759L73.5152 21.1445ZM74.4039 24.3848L76.0756 21.8937L76.0613 21.8842L74.4039 24.3848ZM77.0699 25.0273L77.5261 27.9925L80.0699 25.0273H77.0699ZM77.0699 22.1152H80.0699L77.0699 19.1152V22.1152ZM76.4137 21.9238L74.5396 24.2664L74.7496 24.42L76.4137 21.9238ZM76.9469 5.33984L75.7163 2.60383L73.9471 5.37415L76.9469 5.33984ZM82.6617 2.76953L85.6612 2.71415L81.4312 0.0335218L82.6617 2.76953ZM83.0035 21.2812L80.004 21.3366L80.0384 21.7374L83.0035 21.2812ZM83.0582 24.0703L80.0883 23.646L80.0588 24.129L83.0582 24.0703ZM83.2223 32.4512L83.382 35.4469L86.2217 32.3925L83.2223 32.4512ZM77.0699 32.7793H74.0699L77.2297 35.775L77.0699 32.7793ZM77.0699 31.9453H80.0699L75.934 29.1687L77.0699 31.9453ZM71.8199 32.2051L70.8373 35.0396L70.8489 35.0436L71.8199 32.2051ZM70.0426 31.248L68.1246 33.5548L68.1685 33.5907L70.0426 31.248ZM68.1422 28.5273L65.3537 29.6339L65.3568 29.6415L68.1422 28.5273ZM69.359 19.5723L67.1866 17.5033L67.1722 17.5185L69.359 19.5723ZM72.7359 16.9609L71.3776 14.2861L71.3691 14.2904L72.7359 16.9609ZM77.0699 16.0996L76.7559 19.0831L80.0697 16.0653L77.0699 16.0996ZM76.6912 15.6392C75.8076 15.7517 74.9736 16.0287 74.1987 16.4305L76.9606 21.757C77.1701 21.6484 77.3296 21.6064 77.4487 21.5912L76.6912 15.6392ZM74.1783 16.4412C73.4603 16.8205 72.7955 17.2934 72.2142 17.8748L76.4569 22.1174C76.5682 22.006 76.7329 21.8774 76.981 21.7463L74.1783 16.4412ZM72.2142 17.8748C71.6404 18.4485 71.1639 19.1078 70.8088 19.8502L76.2216 22.4389C76.2676 22.3427 76.3379 22.2364 76.4569 22.1174L72.2142 17.8748ZM70.7967 19.8759C70.4438 20.632 70.2281 21.4687 70.2281 22.3613H76.2281C76.2281 22.3807 76.2269 22.3982 76.2252 22.4131C76.2234 22.4281 76.2212 22.4389 76.2197 22.4453C76.2166 22.4584 76.2174 22.4482 76.2338 22.4132L70.7967 19.8759ZM70.2281 22.3613C70.2281 24.3446 71.2555 25.8972 72.7465 26.8854L76.0613 21.8842C75.9757 21.8274 76.0374 21.8468 76.1159 21.982C76.154 22.0475 76.1848 22.1217 76.2046 22.1978C76.2242 22.2729 76.2281 22.3305 76.2281 22.3613H70.2281ZM72.7322 26.8759C73.8317 27.6136 75.1056 28.082 76.5094 28.082V22.082C76.4913 22.082 76.3616 22.0856 76.0756 21.8937L72.7322 26.8759ZM76.5094 28.082C76.8713 28.082 77.2325 28.0376 77.5261 27.9925L76.6137 22.0622C76.5359 22.0742 76.4864 22.08 76.4607 22.0825C76.4486 22.0837 76.4463 22.0837 76.4526 22.0834C76.4584 22.083 76.4781 22.082 76.5094 22.082V28.082ZM80.0699 25.0273V22.1152H74.0699V25.0273H80.0699ZM77.0699 19.1152C77.3727 19.1152 77.7415 19.2035 78.0778 19.4277L74.7496 24.42C75.4687 24.8994 76.2749 25.1152 77.0699 25.1152V19.1152ZM78.2878 19.5812C78.7132 19.9216 78.8922 20.3127 78.9582 20.5153C79.0186 20.7003 79.0035 20.7776 79.0035 20.666H73.0035C73.0035 21.5281 73.1591 23.162 74.5396 24.2664L78.2878 19.5812ZM79.0035 20.666C79.0035 20.6242 79.0093 20.7183 78.9318 20.8675C78.8514 21.022 78.7527 21.0989 78.734 21.1114L75.4058 16.1191C73.8159 17.179 73.0035 18.8242 73.0035 20.666H79.0035ZM78.1774 8.07585L83.8923 5.50554L81.4312 0.0335218L75.7163 2.60383L78.1774 8.07585ZM79.6622 2.82491L80.004 21.3366L86.003 21.2259L85.6612 2.71415L79.6622 2.82491ZM80.0384 21.7374C80.0831 22.0281 80.1129 22.4091 80.1129 22.8945H86.1129C86.1129 22.1768 86.0697 21.4823 85.9686 20.8251L80.0384 21.7374ZM80.1129 22.8945C80.1129 23.1272 80.1088 23.3088 80.1025 23.4456C80.0957 23.5898 80.0881 23.648 80.0883 23.646L86.028 24.4946C86.0961 24.0184 86.1129 23.4501 86.1129 22.8945H80.1129ZM80.0588 24.129L80.2228 32.5099L86.2217 32.3925L86.0576 24.0116L80.0588 24.129ZM83.0625 29.4554L76.9101 29.7836L77.2297 35.775L83.382 35.4469L83.0625 29.4554ZM80.0699 32.7793V31.9453H74.0699V32.7793H80.0699ZM75.934 29.1687C75.2696 29.4405 74.6426 29.5605 74.0348 29.5605V35.5605C75.4686 35.5605 76.865 35.2705 78.2058 34.722L75.934 29.1687ZM74.0348 29.5605C73.5579 29.5605 73.1497 29.4893 72.791 29.3666L70.8489 35.0436C71.8756 35.3948 72.9439 35.5605 74.0348 35.5605V29.5605ZM72.8025 29.3706C72.4014 29.2315 72.1194 29.0676 71.9167 28.9054L68.1685 33.5907C68.9684 34.2305 69.8713 34.7047 70.8373 35.0396L72.8025 29.3706ZM71.9606 28.9413C71.5916 28.6345 71.2283 28.165 70.9276 27.4132L65.3568 29.6415C65.9675 31.1683 66.8711 32.5126 68.1246 33.5548L71.9606 28.9413ZM70.9307 27.4208C70.6193 26.6361 70.4586 25.8004 70.4586 24.8906H64.4586C64.4586 26.5329 64.7536 28.1217 65.3537 29.6339L70.9307 27.4208ZM70.4586 24.8906C70.4586 23.3054 70.8966 22.3172 71.5457 21.6261L67.1722 17.5185C65.2875 19.5252 64.4586 22.0827 64.4586 24.8906H70.4586ZM71.5314 21.6412C72.4417 20.6854 73.3034 20.0406 74.1027 19.6315L71.3691 14.2904C69.8534 15.0662 68.4637 16.1623 67.1866 17.5033L71.5314 21.6412ZM74.0943 19.6358C74.8742 19.2398 75.601 19.0723 76.3043 19.0723V13.0723C74.5831 13.0723 72.931 13.4972 71.3776 14.2861L74.0943 19.6358ZM76.3043 19.0723C76.4478 19.0723 76.5588 19.0742 76.6416 19.0772C76.7287 19.0803 76.7617 19.0837 76.7559 19.0831L77.384 13.1161C77.0504 13.081 76.6687 13.0723 76.3043 13.0723V19.0723ZM80.0697 16.0653L79.9467 5.30554L73.9471 5.37415L74.0701 16.1339L80.0697 16.0653ZM95.9973 24.4395L98.3078 22.5259L93.3862 22.9621L95.9973 24.4395ZM99.2922 28.418L102.128 29.397L101.603 26.5045L99.2922 28.418ZM97.4055 30.5234L95.7844 27.9991L95.7738 28.006L97.4055 30.5234ZM93.8781 32.0273L93.1051 29.1286L93.0822 29.1349L93.8781 32.0273ZM86.5773 32.1094L85.6121 34.9499L85.6205 34.9527L86.5773 32.1094ZM84.4035 30.6602L86.759 28.8023L86.7517 28.7931L84.4035 30.6602ZM83.8156 22.3613L81.0082 21.3037L81.0043 21.3143L83.8156 22.3613ZM85.4016 19.5723L83.3408 17.392L83.3344 17.3982L85.4016 19.5723ZM87.5617 18L86.1468 15.3546L86.1339 15.3616L87.5617 18ZM89.9953 17.0566L89.2677 14.1462L89.9953 17.0566ZM95.8742 17.3027L94.8589 20.1257L94.8887 20.1362L95.8742 17.3027ZM98.6223 18.9023L100.921 20.8294L100.623 16.6673L98.6223 18.9023ZM91.1164 27.8574L88.8172 25.9303L91.1164 30.8574V27.8574ZM93.0031 27.4473L94.2603 30.1711L94.2785 30.1627L93.0031 27.4473ZM94.6574 26.2578L96.7978 28.3599L96.8163 28.3409L94.6574 26.2578ZM92.2102 21.2539L94.5438 23.1392L93.5736 18.5816L92.2102 21.2539ZM89.4074 21.2129L88.2192 18.4583L88.1992 18.4669L89.4074 21.2129ZM88.4367 21.9238L90.808 23.7615L90.8944 23.6442L88.4367 21.9238ZM87.6848 25.2461L84.7541 25.8872L87.6848 25.2461ZM88.0129 26.4492L85.1423 27.3207L90.3465 28.3345L88.0129 26.4492ZM93.6868 26.353L96.9817 30.3315L101.603 26.5045L98.3078 22.5259L93.6868 26.353ZM96.4564 27.439C96.4927 27.3338 96.4618 27.5641 95.7844 27.9991L99.0266 33.0477C100.336 32.2068 101.563 31.0334 102.128 29.397L96.4564 27.439ZM95.7738 28.006C95.1018 28.4415 94.2285 28.8291 93.1051 29.1286L94.6511 34.926C96.2621 34.4965 97.7403 33.8814 99.0372 33.0409L95.7738 28.006ZM93.0822 29.1349C91.9737 29.4399 90.8832 29.5879 89.8039 29.5879V35.5879C91.4408 35.5879 93.0664 35.3622 94.674 34.9198L93.0822 29.1349ZM89.8039 29.5879C88.8622 29.5879 88.1185 29.4627 87.5342 29.2661L85.6205 34.9527C86.932 35.3941 88.3394 35.5879 89.8039 35.5879V29.5879ZM87.5426 29.2689C87.0397 29.098 86.8434 28.9093 86.759 28.8023L82.048 32.518C82.9844 33.7052 84.2374 34.4827 85.6121 34.9499L87.5426 29.2689ZM86.7517 28.7931C86.376 28.3205 86.0773 27.6013 86.0773 26.3945H80.0773C80.0773 28.6513 80.6628 30.7759 82.0553 32.5272L86.7517 28.7931ZM86.0773 26.3945C86.0773 25.3961 86.2556 24.4057 86.627 23.4083L81.0043 21.3143C80.3913 22.9602 80.0773 24.6586 80.0773 26.3945H86.0773ZM86.623 23.4189C86.8352 22.8556 87.0296 22.4414 87.196 22.1489C87.3675 21.8472 87.4693 21.7458 87.4688 21.7464L83.3344 17.3982C82.2777 18.4028 81.5553 19.8515 81.0082 21.3037L86.623 23.4189ZM87.4623 21.7525C87.9451 21.2962 88.4538 20.9284 88.9896 20.6384L86.1339 15.3616C85.1202 15.9102 84.1888 16.5906 83.3408 17.3921L87.4623 21.7525ZM88.9767 20.6454C89.5494 20.339 90.1303 20.1152 90.7229 19.9671L89.2677 14.1462C88.1833 14.4173 87.1418 14.8224 86.1468 15.3546L88.9767 20.6454ZM90.7229 19.9671C91.3181 19.8183 91.9348 19.7422 92.5793 19.7422V13.7422C91.4555 13.7422 90.3496 13.8757 89.2677 14.1462L90.7229 19.9671ZM92.5793 19.7422C93.4076 19.7422 94.1611 19.8747 94.8589 20.1257L96.8895 14.4798C95.5092 13.9833 94.0661 13.7422 92.5793 13.7422V19.7422ZM94.8887 20.1362C95.5829 20.3777 96.1489 20.7146 96.6211 21.1374L100.623 16.6673C99.5279 15.6865 98.2619 14.9569 96.8598 14.4692L94.8887 20.1362ZM96.3231 16.9752L88.8172 25.9303L93.4156 29.7845L100.921 20.8294L96.3231 16.9752ZM91.1164 30.8574C92.2071 30.8574 93.2658 30.6302 94.2603 30.1711L91.746 24.7234C91.5556 24.8113 91.3565 24.8574 91.1164 24.8574V30.8574ZM94.2785 30.1627C95.2264 29.7174 96.066 29.105 96.7978 28.3599L92.5171 24.1557C92.2462 24.4315 91.983 24.612 91.7277 24.7319L94.2785 30.1627ZM96.8163 28.3409C97.5102 27.6218 98.1044 26.8074 98.6083 25.9168L93.3862 22.9621C93.1063 23.4569 92.8073 23.8547 92.4986 24.1747L96.8163 28.3409ZM93.5736 18.5816C92.7387 18.1557 91.8185 17.9121 90.843 17.9121V23.9121C90.8363 23.9121 90.8289 23.9117 90.8214 23.9108C90.814 23.9098 90.8086 23.9087 90.8058 23.908C90.8031 23.9073 90.8046 23.9075 90.8108 23.9098C90.8171 23.9122 90.829 23.9171 90.8467 23.9262L93.5736 18.5816ZM90.843 17.9121C89.9303 17.9121 89.0483 18.1006 88.2192 18.4583L90.5957 23.9675C90.6963 23.9241 90.7712 23.9121 90.843 23.9121V17.9121ZM88.1992 18.4669C87.4712 18.7873 86.6036 19.3112 85.979 20.2034L90.8944 23.6442C90.768 23.8248 90.6471 23.9236 90.5956 23.9613C90.5455 23.998 90.5415 23.9915 90.6156 23.9588L88.1992 18.4669ZM86.0655 20.0861C85.1165 21.3106 84.5891 22.752 84.5891 24.3301H90.5891C90.5891 24.1581 90.6267 23.9954 90.808 23.7615L86.0655 20.0861ZM84.5891 24.3301C84.5891 24.85 84.6412 25.3711 84.7541 25.8872L90.6155 24.605C90.6008 24.5378 90.5891 24.4482 90.5891 24.3301H84.5891ZM84.7541 25.8872C84.8431 26.294 84.9791 26.7833 85.1423 27.3207L90.8835 25.5778C90.7368 25.0943 90.6541 24.7815 90.6155 24.605L84.7541 25.8872ZM90.3465 28.3345L94.5438 23.1392L89.8766 19.3686L85.6793 24.5639L90.3465 28.3345ZM108.595 29.4023L110.972 27.5721L106.221 27.5674L108.595 29.4023ZM105.286 33.6816L105.379 36.6802L107.659 35.5166L105.286 33.6816ZM98.2312 33.9004L95.8387 32.0906L98.3242 36.8989L98.2312 33.9004ZM105.067 24.8633L107.46 26.6731L107.441 23.0287L105.067 24.8633ZM97.3426 14.8691L97.4738 11.872L94.9689 16.7038L97.3426 14.8691ZM104.835 15.1973L107.226 13.3857L104.966 12.2001L104.835 15.1973ZM108.595 20.1602L106.203 21.9717L110.989 21.9675L108.595 20.1602ZM112.341 15.1973L112.21 12.2001L109.946 13.3899L112.341 15.1973ZM119.846 14.8691L122.22 16.7038L119.715 11.872L119.846 14.8691ZM112.122 24.8633L109.748 23.0287L109.729 26.6731L112.122 24.8633ZM118.958 33.9004L118.865 36.899L121.35 32.0906L118.958 33.9004ZM111.889 33.6816L109.512 35.5119L111.797 36.6802L111.889 33.6816ZM106.221 27.5674L102.913 31.8467L107.659 35.5166L110.968 31.2373L106.221 27.5674ZM105.193 30.6831L98.1383 30.9018L98.3242 36.8989L105.379 36.6802L105.193 30.6831ZM100.624 35.7102L107.46 26.6731L102.675 23.0535L95.8387 32.0906L100.624 35.7102ZM107.441 23.0287L99.7162 13.0345L94.9689 16.7038L102.694 26.6979L107.441 23.0287ZM97.2113 17.8663L104.704 18.1944L104.966 12.2001L97.4738 11.872L97.2113 17.8663ZM102.443 17.0088L106.203 21.9717L110.986 18.3486L107.226 13.3857L102.443 17.0088ZM110.989 21.9675L114.735 17.0046L109.946 13.3899L106.2 18.3528L110.989 21.9675ZM112.472 18.1944L119.978 17.8663L119.715 11.872L112.21 12.2001L112.472 18.1944ZM117.473 13.0345L109.748 23.0287L114.496 26.6979L122.22 16.7038L117.473 13.0345ZM109.729 26.6731L116.565 35.7102L121.35 32.0906L114.514 23.0535L109.729 26.6731ZM119.051 30.9018L111.982 30.6831L111.797 36.6802L118.865 36.899L119.051 30.9018ZM114.266 31.8514L110.972 27.5721L106.218 31.2326L109.512 35.5119L114.266 31.8514Z" fill="black" mask="url(#path-1-outside-1_222_14776)"/>
</svg>
